<svg aria-hidden="true" style="position:absolute;width:0;height:0;overflow:hidden" xmlns="http://www.w3.org/2000/svg">
  <defs>
    <symbol id="icon-heart" viewBox="0 0 37 32">
      <path d="M10.442 0C4.675 0 0 4.675 0 10.442c0 5.78 2.312 8.674 11.989 16.2l4.446 3.458a3.199 3.199 0 0 0 3.929 0l4.446-3.458c9.677-7.527 11.989-10.42 11.989-16.2C36.799 4.675 32.124 0 26.357 0c-2.994 0-5.66 1.361-7.958 3.978C16.102 1.36 13.436 0 10.441 0zm0 3.2c2.431 0 4.622 1.372 6.642 4.293l.329.476a1.2 1.2 0 0 0 1.974 0l.329-.476c2.02-2.921 4.211-4.293 6.642-4.293 4 0 7.242 3.242 7.242 7.242 0 4.448-1.82 6.726-10.754 13.675L18.4 27.575l-4.446-3.458C5.02 17.168 3.2 14.891 3.2 10.442c0-4 3.242-7.242 7.242-7.242z"/>
    </symbol>
    
    <symbol id="icon-moon" viewBox="0 0 32 32">
      <path d="M30.057 19.177c1.152-.408 2.264.702 1.857 1.855-.827 2.347-2.102 4.43-3.828 6.15-6.426 6.426-16.841 6.425-23.266 0-6.427-6.424-6.427-16.841 0-23.268C6.543 2.191 8.626.915 10.968.087c1.153-.408 2.264.703 1.856 1.856-1.736 4.905-.573 10.375 3.142 14.093 3.715 3.714 9.188 4.878 14.09 3.142zM13.91 18.092c-3.747-3.749-5.359-8.963-4.6-14.026A12.82 12.82 0 0 0 6.877 5.97c-5.291 5.291-5.291 13.866 0 19.154 5.289 5.289 13.863 5.29 19.154-.002a12.74 12.74 0 0 0 1.905-2.431c-5.063.76-10.28-.853-14.027-4.599z"/>
    </symbol>
    
    <symbol id="icon-calendar" viewBox="0 0 32 32">
      <path d="M9.778 24.889c.741 0 1.371-.26 1.89-.779s.778-1.148.777-1.888c0-.741-.26-1.371-.779-1.89s-1.148-.778-1.888-.777c-.741 0-1.371.26-1.89.779s-.778 1.148-.777 1.888c0 .741.26 1.371.779 1.89s1.148.778 1.888.777zm0-12.445c.741 0 1.371-.26 1.89-.779s.778-1.148.777-1.888c0-.741-.26-1.371-.779-1.89s-1.148-.778-1.888-.777c-.741 0-1.371.26-1.89.779s-.778 1.148-.777 1.888c0 .741.26 1.371.779 1.89s1.148.778 1.888.777zm12.444 12.445c.741 0 1.371-.26 1.89-.779s.778-1.148.777-1.888c0-.741-.26-1.371-.779-1.89s-1.148-.778-1.888-.777c-.741 0-1.371.26-1.89.779s-.778 1.148-.777 1.888c0 .741.26 1.371.779 1.89s1.148.778 1.888.777zm0-12.445c.741 0 1.371-.26 1.89-.779s.778-1.148.777-1.888c0-.741-.26-1.371-.779-1.89s-1.148-.778-1.888-.777c-.741 0-1.371.26-1.89.779s-.778 1.148-.777 1.888c0 .741.26 1.371.779 1.89s1.148.778 1.888.777zM3.556 32c-.978 0-1.815-.348-2.512-1.045S-.001 29.421 0 28.445V3.556c0-.978.348-1.815 1.045-2.512S2.579-.001 3.555 0h24.889c.978 0 1.815.348 2.512 1.045S32.001 2.579 32 3.555v24.889c0 .978-.348 1.815-1.045 2.512s-1.534 1.045-2.51 1.044H3.556zm0-3.556h24.889V3.555H3.556v24.889z"/>
    </symbol>
    
    <symbol id="icon-gun" viewBox="0 0 38 32">
      <path d="M9.6 24.089c0 .398-.162.758-.488 1.081s-.688.485-1.088.485c-.45 0-.838-.162-1.162-.485s-.487-.684-.487-1.081c0-.448.162-.833.487-1.156s.713-.485 1.162-.485c.4 0 .762.161 1.088.485s.488.708.488 1.156zM35.175 1.791H14.4v.149c-2.1.547-3.7 1.566-4.8 3.058-.4 0-.738-.261-1.012-.783S8.15 3.159 8.1 2.612l-.075-.82H4.8c0 1.193.275 2.411.825 3.654s1.4 2.088 2.55 2.536c0 .099-.025.249-.075.447s-.075.323-.075.373c-2.3 1.044-3.9 2.784-4.8 5.22-.65 1.79-1.25 3.766-1.8 5.929S.5 23.792.3 24.985c-.2 1.193-.3 1.889-.3 2.088 0 1.492.325 2.61.975 3.356.75 1.044 2.025 1.566 3.825 1.566h4.8c1.45 0 2.613-.435 3.488-1.305s1.313-2.026 1.313-3.468c0-1.193.1-2.784.3-4.773h2.925c1.45 0 2.75-.448 3.9-1.342s1.925-2.038 2.325-3.431h1.725c2.55 0 4.375-1.044 5.475-3.132h3.375c.5 0 .75-.273.75-.82s-.25-.82-.75-.82h-2.55c0-.149.025-.41.075-.783s.075-.634.075-.783h6.375V.226h-1.575c-1.1 0-1.65.522-1.65 1.566zM14.4 5.296v8.875c-.95-.298-1.725-.858-2.325-1.678s-.9-1.728-.9-2.722c0-1.044.3-1.976.9-2.797s1.375-1.38 2.325-1.678zM9.6 28.862H4.8c-.75 0-1.225-.124-1.425-.373-.1-.199-.15-.572-.15-1.119.6-4.425 1.6-8.551 3-12.38.5-1.243 1.2-2.188 2.1-2.834.6 2.038 1.925 3.58 3.975 4.624-.75 4.673-1.125 8.154-1.125 10.441 0 1.094-.525 1.641-1.575 1.641zm8.025-9.546h-2.4c.2-.895.3-1.442.3-1.641h4.8c-.5 1.094-1.4 1.641-2.7 1.641zm7.95-4.772h-7.95V4.998H28.8v1.566h-7.2c-.55 0-.825.273-.825.82 0 .497.275.746.825.746h7.2v1.641h-7.2c-.55 0-.825.249-.825.746 0 .547.275.82.825.82h7.2c0 .845-.312 1.591-.937 2.237s-1.388.97-2.288.97zm9.6-6.414h-3.15V4.998h3.15V8.13z"/>
    </symbol>
    
    <symbol id="icon-arrow" viewBox="0 0 19 32">
      <path d="M.977 16.011c.009-.31.071-.593.186-.85s.292-.505.531-.744L15.002 1.534c.381-.381.85-.571 1.408-.571.372 0 .708.089 1.009.266.31.177.553.416.731.717.186.301.279.637.279 1.009 0 .549-.208 1.032-.624 1.448L5.772 15.998l12.033 11.608c.416.425.624.908.624 1.448 0 .381-.093.722-.279 1.023-.177.301-.421.54-.731.717a1.88 1.88 0 0 1-1.009.279 1.893 1.893 0 0 1-1.408-.584L1.694 17.606a2.436 2.436 0 0 1-.545-.744 2.118 2.118 0 0 1-.173-.85z"/>
    </symbol>
    
  </defs>
</svg>
